<svg xmlns="http://www.w3.org/2000/svg" viewBox="0 0 64 64">
  <defs>
    <linearGradient id="bg" x1="0" x2="1" y1="0" y2="1">
      <stop offset="0" stop-color="#0f172a"/>
      <stop offset="1" stop-color="#1e293b"/>
    </linearGradient>
  </defs>
  <rect width="64" height="64" rx="14" fill="url(#bg)"/>
  <path d="M24 22a8 8 0 0 1 11 0l4 4-4.2 4.2-4-4a2 2 0 0 0-2.8 0l-6 6a2 2 0 0 0 0 2.8l4 4-4.2 4.2-4-4a8 8 0 0 1 0-11z" fill="#38bdf8"/>
  <path d="M40 42a8 8 0 0 1-11 0l-4-4 4.2-4.2 4 4a2 2 0 0 0 2.8 0l6-6a2 2 0 0 0 0-2.8l-4-4 4.2-4.2 4 4a8 8 0 0 1 0 11z" fill="#f59e0b"/>
</svg>
